<?xml version="1.0" encoding="iso-8859-1"?>
<!-- Generator: Adobe Illustrator 19.0.0, SVG Export Plug-In . SVG Version: 6.00 Build 0)  -->
<svg version="1.1" id="Capa_1" xmlns="http://www.w3.org/2000/svg" xmlns:xlink="http://www.w3.org/1999/xlink" x="0px" y="0px"
	 viewBox="0 0 512 512" style="enable-background:new 0 0 512 512;" xml:space="preserve">
<path style="fill:#FFA600;" d="M228.267,321.036v163.231c0,15.292,12.441,27.733,27.734,27.733
	c15.292,0,27.733-12.441,27.733-27.733V321.036H228.267z"/>
<rect x="228.267" y="331.086" style="fill:#FF902C;" width="55.469" height="35.045"/>
<path style="fill:#2684FF;" d="M333.87,0H178.129c-21.332,0-38.688,17.355-38.688,38.688V315.69
	c0,18.417,13.172,34.052,30.587,37.816v52.381c0,12.29,9.998,22.288,22.288,22.288c12.29,0,22.288-9.999,22.288-22.288v-51.51
	h84.214v16.238c0,12.29,9.999,22.288,22.288,22.288c12.29,0,22.288-9.998,22.288-22.288v-17.43
	c16.822-4.268,29.162-19.56,29.162-37.496V38.688C372.558,17.355,355.203,0,333.87,0z"/>
<g>
	<path style="fill:#0065FF;" d="M333.87,0h-23.112c21.332,0,38.688,17.355,38.688,38.688V315.69
		c0,17.936-12.341,33.228-29.162,37.496v17.43c0,8.062-4.303,15.137-10.732,19.052c3.371,2.053,7.329,3.237,11.556,3.237
		c12.29,0,22.288-9.999,22.288-22.288v-17.43c16.822-4.268,29.162-19.56,29.162-37.496V38.688C372.558,17.355,355.202,0,333.87,0z"
		/>
	<path style="fill:#4C9AFF;" d="M200.941,207.868c-4.162,0-7.537-3.374-7.537-7.537V62.658c0-4.162,3.374-7.537,7.537-7.537
		s7.537,3.374,7.537,7.537v137.674C208.478,204.494,205.104,207.868,200.941,207.868z"/>
	<path style="fill:#4C9AFF;" d="M256.001,207.868c-4.162,0-7.537-3.374-7.537-7.537V62.658c0-4.162,3.374-7.537,7.537-7.537
		c4.162,0,7.537,3.374,7.537,7.537v137.674C263.537,204.494,260.163,207.868,256.001,207.868z"/>
	<path style="fill:#4C9AFF;" d="M311.06,207.868c-4.162,0-7.537-3.374-7.537-7.537V62.658c0-4.162,3.374-7.537,7.537-7.537
		c4.162,0,7.537,3.374,7.537,7.537v137.674C318.596,204.494,315.222,207.868,311.06,207.868z"/>
</g>
<path style="fill:#ECEDEF;" d="M365.022,228.463H139.443v87.228c0,18.417,13.172,34.051,30.587,37.816v52.381
	c0,12.29,9.998,22.288,22.288,22.288s22.288-9.999,22.288-22.288v-51.51h84.214v16.238c0,12.29,9.999,22.288,22.288,22.288
	c12.29,0,22.288-9.999,22.288-22.288v-17.43c16.822-4.268,29.161-19.56,29.161-37.496v-87.228L365.022,228.463L365.022,228.463z"/>
<g>
	<path style="fill:#D2D2D2;" d="M349.447,228.463v87.228c0,17.936-12.341,33.228-29.161,37.496v17.43
		c0,8.062-4.303,15.137-10.732,19.052c3.371,2.053,7.329,3.237,11.556,3.237c12.29,0,22.288-9.999,22.288-22.288v-17.43
		c16.822-4.268,29.161-19.56,29.161-37.496v-87.228h-23.112V228.463z"/>
	<path style="fill:#D2D2D2;" d="M191.495,405.887c0,8.061-4.303,15.137-10.732,19.052c3.371,2.053,7.329,3.237,11.556,3.237
		c12.29,0,22.288-9.999,22.288-22.288v-51.51h-23.112L191.495,405.887L191.495,405.887z"/>
</g>
<g>
</g>
<g>
</g>
<g>
</g>
<g>
</g>
<g>
</g>
<g>
</g>
<g>
</g>
<g>
</g>
<g>
</g>
<g>
</g>
<g>
</g>
<g>
</g>
<g>
</g>
<g>
</g>
<g>
</g>
</svg>
